<?plantuml 1.2026.2?><svg xmlns="http://www.w3.org/2000/svg" xmlns:xlink="http://www.w3.org/1999/xlink" contentStyleType="text/css" data-diagram-type="DESCRIPTION" height="957px" preserveAspectRatio="none" style="width:3701px;height:957px;background:#FFFFFF;" version="1.1" viewBox="0 0 3701 957" width="3701px" zoomAndPan="magnify"><title>Data Flow Diagram</title><defs/><g><g class="title" data-source-line="1"><text fill="#000000" font-family="sans-serif" font-size="14" font-weight="bold" lengthAdjust="spacing" textLength="132.9295" x="1777.3703" y="24.9659">Data Flow Diagram</text></g><!--cluster gh--><g class="cluster" data-qualified-name="gh" data-source-line="4" id="ent0002"><rect fill="none" height="117.07" rx="2.5" ry="2.5" style="stroke:#181818;stroke-width:1;" width="674" x="2907" y="834.8679"/><text fill="#000000" font-family="sans-serif" font-size="14" font-weight="bold" lengthAdjust="spacing" textLength="49.0558" x="3219.4721" y="851.8339">GitHub</text></g><!--cluster gs--><g class="cluster" data-qualified-name="gs" data-source-line="11" id="ent0007"><rect fill="none" height="101.07" rx="2.5" ry="2.5" style="stroke:#181818;stroke-width:1;" width="580" x="7" y="135.6979"/><text fill="#000000" font-family="sans-serif" font-size="14" font-weight="bold" lengthAdjust="spacing" textLength="99.2876" x="247.3562" y="152.6639">Google Sheets</text></g><!--cluster ext--><g class="cluster" data-qualified-name="ext" data-source-line="18" id="ent0012"><rect fill="none" height="101.07" rx="2.5" ry="2.5" style="stroke:#181818;stroke-width:1;" width="567" x="611" y="135.6979"/><text fill="#000000" font-family="sans-serif" font-size="14" font-weight="bold" lengthAdjust="spacing" textLength="58.2818" x="865.3591" y="152.6639">External</text></g><!--cluster pj--><g class="cluster" data-qualified-name="pj" data-source-line="25" id="ent0016"><rect fill="none" height="686.17" rx="2.5" ry="2.5" style="stroke:#181818;stroke-width:1;" width="1850" x="1202" y="89.6979"/><text fill="#000000" font-family="sans-serif" font-size="14" font-weight="bold" lengthAdjust="spacing" textLength="92.9596" x="2080.5202" y="106.6639">Project Judge</text></g><!--cluster ingress--><g class="cluster" data-qualified-name="pj.ingress" data-source-line="27" id="ent0017"><rect fill="none" height="101.07" rx="2.5" ry="2.5" style="stroke:#181818;stroke-width:1;" width="273" x="1764" y="135.6979"/><text fill="#000000" font-family="sans-serif" font-size="14" font-weight="bold" lengthAdjust="spacing" textLength="52.0658" x="1874.4671" y="152.6639">Ingress</text></g><!--cluster proc--><g class="cluster" data-qualified-name="pj.proc" data-source-line="32" id="ent0020"><rect fill="none" height="286.16" rx="2.5" ry="2.5" style="stroke:#181818;stroke-width:1;" width="889" x="1234" y="295.7679"/><text fill="#000000" font-family="sans-serif" font-size="14" font-weight="bold" lengthAdjust="spacing" textLength="75.4737" x="1640.7631" y="312.7339">Processing</text></g><!--cluster output--><g class="cluster" data-qualified-name="pj.output" data-source-line="41" id="ent0027"><rect fill="none" height="101.07" rx="2.5" ry="2.5" style="stroke:#181818;stroke-width:1;" width="659" x="2369" y="650.7979"/><text fill="#000000" font-family="sans-serif" font-size="14" font-weight="bold" lengthAdjust="spacing" textLength="50.2738" x="2673.3631" y="667.7639">Output</text></g><!--cluster obs--><g class="cluster" data-qualified-name="pj.obs" data-source-line="48" id="ent0032"><rect fill="none" height="101.07" rx="2.5" ry="2.5" style="stroke:#181818;stroke-width:1;" width="317" x="2155" y="472.8579"/><text fill="#000000" font-family="sans-serif" font-size="14" font-weight="bold" lengthAdjust="spacing" textLength="93.4077" x="2266.7962" y="489.8239">Observability</text></g><!--entity wh_payload--><g class="entity" data-qualified-name="gh.wh_payload" data-source-line="5" id="ent0003"><rect fill="#F1F1F1" height="25.0679" rx="2.5" ry="2.5" style="stroke:#181818;stroke-width:0.5;" width="138.3835" x="3418.81" y="902.8679"/><text fill="#000000" font-family="sans-serif" font-size="14" lengthAdjust="spacing" textLength="118.3835" x="3428.81" y="920.8339">Webhook payload</text></g><!--entity pr_files--><g class="entity" data-qualified-name="gh.pr_files" data-source-line="6" id="ent0004"><rect fill="#F1F1F1" height="25.0679" rx="2.5" ry="2.5" style="stroke:#181818;stroke-width:0.5;" width="101.3537" x="3282.32" y="902.8679"/><text fill="#000000" font-family="sans-serif" font-size="14" lengthAdjust="spacing" textLength="81.3537" x="3292.32" y="920.8339">PR files (diff)</text></g><!--entity file_content--><g class="entity" data-qualified-name="gh.file_content" data-source-line="7" id="ent0005"><rect fill="#F1F1F1" height="25.0679" rx="2.5" ry="2.5" style="stroke:#181818;stroke-width:0.5;" width="155.6455" x="3092.18" y="902.8679"/><text fill="#000000" font-family="sans-serif" font-size="14" lengthAdjust="spacing" textLength="135.6455" x="3102.18" y="920.8339">File content (base64)</text></g><!--entity diff_hunks--><g class="entity" data-qualified-name="gh.diff_hunks" data-source-line="8" id="ent0006"><rect fill="#F1F1F1" height="25.0679" rx="2.5" ry="2.5" style="stroke:#181818;stroke-width:0.5;" width="106.4496" x="2950.78" y="902.8679"/><text fill="#000000" font-family="sans-serif" font-size="14" lengthAdjust="spacing" textLength="86.4496" x="2960.78" y="920.8339">PR diff hunks</text></g><!--entity roster_sheet--><g class="entity" data-qualified-name="gs.roster_sheet" data-source-line="12" id="ent0008"><rect fill="#F1F1F1" height="25.0679" rx="2.5" ry="2.5" style="stroke:#181818;stroke-width:0.5;" width="102.4597" x="22.77" y="195.6979"/><text fill="#000000" font-family="sans-serif" font-size="14" lengthAdjust="spacing" textLength="82.4597" x="32.77" y="213.6639">Roster sheet</text></g><!--entity rubrics_sheet--><g class="entity" data-qualified-name="gs.rubrics_sheet" data-source-line="13" id="ent0009"><rect fill="#F1F1F1" height="25.0679" rx="2.5" ry="2.5" style="stroke:#181818;stroke-width:0.5;" width="108.6337" x="302.68" y="195.6979"/><text fill="#000000" font-family="sans-serif" font-size="14" lengthAdjust="spacing" textLength="88.6337" x="312.68" y="213.6639">Rubrics sheet</text></g><!--entity deadlines_sheet--><g class="entity" data-qualified-name="gs.deadlines_sheet" data-source-line="14" id="ent0010"><rect fill="#F1F1F1" height="25.0679" rx="2.5" ry="2.5" style="stroke:#181818;stroke-width:0.5;" width="124.9016" x="446.55" y="195.6979"/><text fill="#000000" font-family="sans-serif" font-size="14" lengthAdjust="spacing" textLength="104.9016" x="456.55" y="213.6639">Deadlines sheet</text></g><!--entity results_sheet--><g class="entity" data-qualified-name="gs.results_sheet" data-source-line="15" id="ent0011"><rect fill="#F1F1F1" height="25.0679" rx="2.5" ry="2.5" style="stroke:#181818;stroke-width:0.5;" width="107.1777" x="160.41" y="195.6979"/><text fill="#000000" font-family="sans-serif" font-size="14" lengthAdjust="spacing" textLength="87.1777" x="170.41" y="213.6639">Results sheet</text></g><!--entity spec_html--><g class="entity" data-qualified-name="ext.spec_html" data-source-line="19" id="ent0013"><rect fill="#F1F1F1" height="25.0679" rx="2.5" ry="2.5" style="stroke:#181818;stroke-width:0.5;" width="164.2134" x="997.89" y="195.6979"/><text fill="#000000" font-family="sans-serif" font-size="14" lengthAdjust="spacing" textLength="144.2134" x="1007.89" y="213.6639">Lab spec page (HTML)</text></g><!--entity llm_resp--><g class="entity" data-qualified-name="ext.llm_resp" data-source-line="20" id="ent0014"><rect fill="#F1F1F1" height="25.0679" rx="2.5" ry="2.5" style="stroke:#181818;stroke-width:0.5;" width="147.5255" x="627.24" y="195.6979"/><text fill="#000000" font-family="sans-serif" font-size="14" lengthAdjust="spacing" textLength="127.5255" x="637.24" y="213.6639">Z.AI LLM responses</text></g><!--entity sandbox_out--><g class="entity" data-qualified-name="ext.sandbox_out" data-source-line="21" id="ent0015"><rect fill="#F1F1F1" height="25.0679" rx="2.5" ry="2.5" style="stroke:#181818;stroke-width:0.5;" width="152.9715" x="809.51" y="195.6979"/><text fill="#000000" font-family="sans-serif" font-size="14" lengthAdjust="spacing" textLength="132.9715" x="819.51" y="213.6639">E2B sandbox output</text></g><!--entity pr_ctx--><g class="entity" data-qualified-name="pj.ingress.pr_ctx" data-source-line="28" id="ent0018"><rect fill="#F1F1F1" height="25.0679" rx="2.5" ry="2.5" style="stroke:#181818;stroke-width:0.5;" width="88.5577" x="1779.72" y="195.6979"/><text fill="#000000" font-family="sans-serif" font-size="14" lengthAdjust="spacing" textLength="68.5577" x="1789.72" y="213.6639">PRContext</text></g><!--entity student_rec--><g class="entity" data-qualified-name="pj.ingress.student_rec" data-source-line="29" id="ent0019"><rect fill="#F1F1F1" height="25.0679" rx="2.5" ry="2.5" style="stroke:#181818;stroke-width:0.5;" width="117.7896" x="1903.11" y="195.6979"/><text fill="#000000" font-family="sans-serif" font-size="14" lengthAdjust="spacing" textLength="97.7896" x="1913.11" y="213.6639">StudentRecord</text></g><!--entity artifact_res--><g class="entity" data-qualified-name="pj.proc.artifact_res" data-source-line="33" id="ent0021"><rect fill="#F1F1F1" height="25.0679" rx="2.5" ry="2.5" style="stroke:#181818;stroke-width:0.5;" width="150.2835" x="1766.86" y="363.7679"/><text fill="#000000" font-family="sans-serif" font-size="14" lengthAdjust="spacing" textLength="130.2835" x="1776.86" y="381.7339">Artifact check result</text></g><!--entity file_text--><g class="entity" data-qualified-name="pj.proc.file_text" data-source-line="34" id="ent0022"><rect fill="#F1F1F1" height="25.0679" rx="2.5" ry="2.5" style="stroke:#181818;stroke-width:0.5;" width="142.0515" x="1257.97" y="363.7679"/><text fill="#000000" font-family="sans-serif" font-size="14" lengthAdjust="spacing" textLength="122.0515" x="1267.97" y="381.7339">File text (sanitized)</text></g><!--entity dod_res--><g class="entity" data-qualified-name="pj.proc.dod_res" data-source-line="35" id="ent0023"><rect fill="#F1F1F1" height="25.0679" rx="2.5" ry="2.5" style="stroke:#181818;stroke-width:0.5;" width="126.7356" x="1952.63" y="363.7679"/><text fill="#000000" font-family="sans-serif" font-size="14" lengthAdjust="spacing" textLength="106.7356" x="1962.63" y="381.7339">DoD completion</text></g><!--entity penalty--><g class="entity" data-qualified-name="pj.proc.penalty" data-source-line="36" id="ent0024"><rect fill="#F1F1F1" height="25.0679" rx="2.5" ry="2.5" style="stroke:#181818;stroke-width:0.5;" width="140.5815" x="1434.71" y="363.7679"/><text fill="#000000" font-family="sans-serif" font-size="14" lengthAdjust="spacing" textLength="120.5815" x="1444.71" y="381.7339">Penalty coefficient</text></g><!--entity content_scores--><g class="entity" data-qualified-name="pj.proc.content_scores" data-source-line="37" id="ent0025"><rect fill="#F1F1F1" height="25.0679" rx="2.5" ry="2.5" style="stroke:#181818;stroke-width:0.5;" width="118.5456" x="1269.73" y="532.8579"/><text fill="#000000" font-family="sans-serif" font-size="14" lengthAdjust="spacing" textLength="98.5456" x="1279.73" y="550.8239">Content scores</text></g><!--entity sandbox_report--><g class="entity" data-qualified-name="pj.proc.sandbox_report" data-source-line="38" id="ent0026"><rect fill="#F1F1F1" height="25.0679" rx="2.5" ry="2.5" style="stroke:#181818;stroke-width:0.5;" width="121.8076" x="1610.1" y="363.7679"/><text fill="#000000" font-family="sans-serif" font-size="14" lengthAdjust="spacing" textLength="101.8076" x="1620.1" y="381.7339">SandboxReport</text></g><!--entity pr_comment--><g class="entity" data-qualified-name="pj.output.pr_comment" data-source-line="42" id="ent0028"><rect fill="#F1F1F1" height="25.0679" rx="2.5" ry="2.5" style="stroke:#181818;stroke-width:0.5;" width="186.7673" x="2515.62" y="710.7979"/><text fill="#000000" font-family="sans-serif" font-size="14" lengthAdjust="spacing" textLength="166.7673" x="2525.62" y="728.7639">PR comment (markdown)</text></g><!--entity inline_comments--><g class="entity" data-qualified-name="pj.output.inline_comments" data-source-line="43" id="ent0029"><rect fill="#F1F1F1" height="25.0679" rx="2.5" ry="2.5" style="stroke:#181818;stroke-width:0.5;" width="177.4294" x="2834.29" y="710.7979"/><text fill="#000000" font-family="sans-serif" font-size="14" lengthAdjust="spacing" textLength="157.4294" x="2844.29" y="728.7639">Inline review comments</text></g><!--entity results_row--><g class="entity" data-qualified-name="pj.output.results_row" data-source-line="44" id="ent0030"><rect fill="#F1F1F1" height="25.0679" rx="2.5" ry="2.5" style="stroke:#181818;stroke-width:0.5;" width="96.2297" x="2384.89" y="710.7979"/><text fill="#000000" font-family="sans-serif" font-size="14" lengthAdjust="spacing" textLength="76.2297" x="2394.89" y="728.7639">Results row</text></g><!--entity labels--><g class="entity" data-qualified-name="pj.output.labels" data-source-line="45" id="ent0031"><rect fill="#F1F1F1" height="25.0679" rx="2.5" ry="2.5" style="stroke:#181818;stroke-width:0.5;" width="62.0138" x="2736.99" y="710.7979"/><text fill="#000000" font-family="sans-serif" font-size="14" lengthAdjust="spacing" textLength="42.0138" x="2746.99" y="728.7639">Labels</text></g><!--entity traces--><g class="entity" data-qualified-name="pj.obs.traces" data-source-line="49" id="ent0033"><rect fill="#F1F1F1" height="25.0679" rx="2.5" ry="2.5" style="stroke:#181818;stroke-width:0.5;" width="124.1736" x="2170.91" y="532.8579"/><text fill="#000000" font-family="sans-serif" font-size="14" lengthAdjust="spacing" textLength="104.1736" x="2180.91" y="550.8239">Langfuse traces</text></g><!--entity logs--><g class="entity" data-qualified-name="pj.obs.logs" data-source-line="50" id="ent0034"><rect fill="#F1F1F1" height="25.0679" rx="2.5" ry="2.5" style="stroke:#181818;stroke-width:0.5;" width="125.6156" x="2330.19" y="532.8579"/><text fill="#000000" font-family="sans-serif" font-size="14" lengthAdjust="spacing" textLength="105.6156" x="2340.19" y="550.8239">structlog events</text></g><g class="entity" data-qualified-name="GMN60" data-source-line="88" id="ent0061"><path d="M3541.33,344.7379 L3541.33,407.856 L3694.6701,407.856 L3694.6701,354.7379 L3684.6701,344.7379 L3541.33,344.7379" fill="#FEFFDD" style="stroke:#181818;stroke-width:0.5;"/><path d="M3684.6701,344.7379 L3684.6701,354.7379 L3694.6701,354.7379 L3684.6701,344.7379" fill="#FEFFDD" style="stroke:#181818;stroke-width:1;"/><text fill="#000000" font-family="sans-serif" font-size="13" lengthAdjust="spacing" textLength="107.0161" x="3547.33" y="363.6349">Immutable fields:</text><text fill="#000000" font-family="sans-serif" font-size="13" lengthAdjust="spacing" textLength="132.3401" x="3547.33" y="381.3409">created_at, head_sha,</text><text fill="#000000" font-family="sans-serif" font-size="13" lengthAdjust="spacing" textLength="84.6691" x="3547.33" y="399.047">installation_id</text></g><g class="entity" data-qualified-name="GMN63" data-source-line="94" id="ent0064"><path d="M3142.43,504.9779 L3142.43,585.802 L3319.5602,585.802 L3319.5602,514.9779 L3309.5602,504.9779 L3142.43,504.9779" fill="#FEFFDD" style="stroke:#181818;stroke-width:0.5;"/><path d="M3309.5602,504.9779 L3309.5602,514.9779 L3319.5602,514.9779 L3309.5602,504.9779" fill="#FEFFDD" style="stroke:#181818;stroke-width:1;"/><text fill="#000000" font-family="sans-serif" font-size="13" lengthAdjust="spacing" textLength="113.0741" x="3148.43" y="523.8749">Structured output:</text><text fill="#000000" font-family="sans-serif" font-size="13" lengthAdjust="spacing" textLength="156.1302" x="3148.43" y="541.5809">build_status, tests_status,</text><text fill="#000000" font-family="sans-serif" font-size="13" lengthAdjust="spacing" textLength="123.2141" x="3148.43" y="559.287">code_quality_issues,</text><text fill="#000000" font-family="sans-serif" font-size="13" lengthAdjust="spacing" textLength="112.4891" x="3148.43" y="576.993">inline_comments[]</text></g><g class="entity" data-qualified-name="GMN66" data-source-line="101" id="ent0067"><path d="M3068.2,691.7779 L3068.2,719.3379 L3012.02,723.3379 L3068.2,727.3379 L3068.2,754.896 A0,0 0 0 0 3068.2,754.896 L3199.8041,754.896 A0,0 0 0 0 3199.8041,754.896 L3199.8041,701.7779 L3189.8041,691.7779 L3068.2,691.7779 A0,0 0 0 0 3068.2,691.7779" fill="#FEFFDD" style="stroke:#181818;stroke-width:0.5;"/><path d="M3189.8041,691.7779 L3189.8041,701.7779 L3199.8041,701.7779 L3189.8041,691.7779" fill="#FEFFDD" style="stroke:#181818;stroke-width:0.5;"/><text fill="#000000" font-family="sans-serif" font-size="13" lengthAdjust="spacing" textLength="110.6041" x="3074.2" y="710.6749">Filtered: only lines</text><text fill="#000000" font-family="sans-serif" font-size="13" lengthAdjust="spacing" textLength="104.7541" x="3074.2" y="728.3809">present in PR diff</text><text fill="#000000" font-family="sans-serif" font-size="13" lengthAdjust="spacing" textLength="74.9061" x="3074.2" y="746.087">(RIGHT side)</text></g><!--link wh_payload to pr_ctx--><g class="link" data-entity-1="ent0003" data-entity-2="ent0018" data-link-type="dependency" data-source-line="55" id="lnk35"><path d="M3488,902.3979 C3488,872.3779 3488,791.6479 3488,724.3379 C3488,375.2979 3488,375.2979 3488,375.2979 C3488,215.1579 2211.78,263.4279 2052,252.7679 C2015.15,250.3079 1921.45,255.1179 1886,244.7679 C1869.09,239.8179 1856.7991,232.8346 1844.8091,224.5646" fill="none" id="wh_payload-to-pr_ctx" style="stroke:#181818;stroke-width:1;"/><polygon fill="#181818" points="1839.87,221.1579,1845.0075,229.5607,1843.9859,223.9968,1849.5497,222.9752,1839.87,221.1579" style="stroke:#181818;stroke-width:1;"/><text fill="#000000" font-family="sans-serif" font-size="13" lengthAdjust="spacing" textLength="71.591" x="3489" y="550.7849">parse event</text></g><!--link roster_sheet to student_rec--><g class="link" data-entity-1="ent0008" data-entity-2="ent0019" data-link-type="dependency" data-source-line="56" id="lnk36"><path d="M77.28,195.2279 C84.38,170.1979 103.79,115.8579 143,93.6979 C227.31,46.0679 1800.67,47.9179 1886,93.6979 C1927,115.6979 1947.7119,164.9562 1956.1719,189.8862" fill="none" id="roster_sheet-to-student_rec" style="stroke:#181818;stroke-width:1;"/><polygon fill="#181818" points="1958.1,195.5679,1958.9957,185.7599,1956.4932,190.8331,1951.42,188.3307,1958.1,195.5679" style="stroke:#181818;stroke-width:1;"/><text fill="#000000" font-family="sans-serif" font-size="13" lengthAdjust="spacing" textLength="120.7051" x="794" y="69.5949">read_roster(sender)</text></g><!--link rubrics_sheet to content_scores--><g class="link" data-entity-1="ent0009" data-entity-2="ent0025" data-link-type="dependency" data-source-line="57" id="lnk37"><path d="M372.97,221.1279 C419.91,255.5279 562.51,355.8979 696,407.8579 C898.2,486.5679 1149.343,523.4808 1263.643,537.2408" fill="none" id="rubrics_sheet-to-content_scores" style="stroke:#181818;stroke-width:1;stroke-dasharray:7,7;"/><polygon fill="#181818" points="1269.6,537.9579,1261.1426,532.9109,1264.6358,537.3603,1260.1864,540.8535,1269.6,537.9579" style="stroke:#181818;stroke-width:1;"/><text fill="#000000" font-family="sans-serif" font-size="13" lengthAdjust="spacing" textLength="131.3261" x="697" y="381.6949">criteria for evaluation</text></g><!--link deadlines_sheet to penalty--><g class="link" data-entity-1="ent0010" data-entity-2="ent0024" data-link-type="dependency" data-source-line="58" id="lnk38"><path d="M537.5,221.1579 C557.67,229.1079 585.56,239.0979 611,244.7679 C724.83,270.1179 755.58,264.8979 872,271.7679 C887.14,272.6579 1404.17,273.5279 1418,279.7679 C1457.06,297.3679 1483.2856,336.6728 1495.5956,358.1428" fill="none" id="deadlines_sheet-to-penalty" style="stroke:#181818;stroke-width:1;stroke-dasharray:7,7;"/><polygon fill="#181818" points="1498.58,363.3479,1497.5735,353.5506,1496.093,359.0103,1490.6333,357.5298,1498.58,363.3479" style="stroke:#181818;stroke-width:1;"/><text fill="#000000" font-family="sans-serif" font-size="13" lengthAdjust="spacing" textLength="83.3821" x="873" y="267.6649">deadline date</text></g><!--link pr_files to artifact_res--><g class="link" data-entity-1="ent0004" data-entity-2="ent0021" data-link-type="dependency" data-source-line="61" id="lnk39"><path d="M3335.07,902.7179 C3346.09,838.8679 3395.29,532.5979 3337,464.8579 C3284.52,403.8679 3238.15,444.8579 3158,437.8579 C2887.17,414.1979 2202.89,454.1179 1935,407.8579 C1913.06,404.0679 1894.8317,398.2813 1876.7817,391.4513" fill="none" id="pr_files-to-artifact_res" style="stroke:#181818;stroke-width:1;"/><polygon fill="#181818" points="1871.17,389.3279,1878.1719,396.2542,1875.8464,391.0974,1881.0032,388.7719,1871.17,389.3279" style="stroke:#181818;stroke-width:1;"/><text fill="#000000" font-family="sans-serif" font-size="13" lengthAdjust="spacing" textLength="90.1941" x="3365.89" y="630.6949">check_artifacts</text></g><!--link file_content to file_text--><g class="link" data-entity-1="ent0005" data-entity-2="ent0022" data-link-type="dependency" data-source-line="62" id="lnk40"><path d="M3177.43,902.4479 C3201.31,862.3179 3271.52,730.0579 3217,642.7979 C3192.89,604.2179 3161.46,625.1379 3125,597.9279 C3060.71,549.9279 3075.63,498.9479 3003,464.8579 C2843.37,389.9279 1590.44,439.7079 1417,407.8579 C1396.16,404.0279 1379.1813,398.3451 1362.1213,391.5251" fill="none" id="file_content-to-file_text" style="stroke:#181818;stroke-width:1;"/><polygon fill="#181818" points="1356.55,389.2979,1363.4222,396.353,1361.1928,391.1539,1366.3918,388.9245,1356.55,389.2979" style="stroke:#181818;stroke-width:1;"/><text fill="#000000" font-family="sans-serif" font-size="13" lengthAdjust="spacing" textLength="112.8661" x="3211.72" y="630.6949">read_file + sanitize</text></g><!--link pr_ctx to dod_res--><g class="link" data-entity-1="ent0018" data-entity-2="ent0023" data-link-type="dependency" data-source-line="63" id="lnk41"><path d="M1844.37,221.1679 C1872,237.5279 1919.68,266.4079 1935,279.7679 C1965.33,306.1879 1990.6343,339.4343 2004.2743,358.5443" fill="none" id="pr_ctx-to-dod_res" style="stroke:#181818;stroke-width:1;"/><polygon fill="#181818" points="2007.76,363.4279,2005.7871,353.7787,2004.8552,359.3582,1999.2757,358.4263,2007.76,363.4279" style="stroke:#181818;stroke-width:1;"/><text fill="#000000" font-family="sans-serif" font-size="13" lengthAdjust="spacing" textLength="118.9761" x="1925.45" y="267.6649">parse_dod(pr.body)</text></g><!--link pr_ctx to penalty--><g class="link" data-entity-1="ent0018" data-entity-2="ent0024" data-link-type="dependency" data-source-line="64" id="lnk42"><path d="M1779.39,215.6679 C1730.6,224.2779 1651.57,242.9279 1593,279.7679 C1557.11,302.3279 1529.8608,338.3211 1516.1108,358.4811" fill="none" id="pr_ctx-to-penalty" style="stroke:#181818;stroke-width:1;"/><polygon fill="#181818" points="1512.73,363.4379,1521.1057,358.2565,1515.5473,359.3072,1514.4966,353.7488,1512.73,363.4379" style="stroke:#181818;stroke-width:1;"/><text fill="#000000" font-family="sans-serif" font-size="13" lengthAdjust="spacing" textLength="181.9091" x="1646.75" y="267.6649">check_deadline(pr.created_at)</text></g><!--link spec_html to proc--><g class="link" data-entity-1="ent0013" data-entity-2="ent0020" data-link-type="dependency" data-source-line="65" id="lnk43"><path d="M1128.68,221.1979 C1192.88,236.3479 1309.6,261.6679 1411,271.7679 C1429.91,273.6479 2080.32,267.6979 2095,279.7679 C2099.1237,283.1567 2102.5355,287.1578 2105.3479,291.5692 C2106.0511,292.6721 2106.7167,293.8006 2107.3467,294.9516 C2107.4255,295.0954 2104.665,289.9536 2104.7427,290.0982" fill="none" id="spec_html-to-proc" style="stroke:#181818;stroke-width:1;"/><polygon fill="#181818" points="2107.5813,295.3842,2106.8474,285.5628,2105.2158,290.9792,2099.7993,289.3476,2107.5813,295.3842" style="stroke:#181818;stroke-width:1;"/><text fill="#000000" font-family="sans-serif" font-size="13" lengthAdjust="spacing" textLength="189.9691" x="1412" y="267.6649">fetch_spec -&gt; deliverables, DoD</text></g><!--link file_text to content_scores--><g class="link" data-entity-1="ent0022" data-entity-2="ent0025" data-link-type="dependency" data-source-line="66" id="lnk44"><path d="M1329,389.3179 C1329,420.1479 1329,495.7679 1329,526.4779" fill="none" id="file_text-to-content_scores" style="stroke:#181818;stroke-width:1;"/><polygon fill="#181818" points="1329,532.4779,1333,523.4779,1329,527.4779,1325,523.4779,1329,532.4779" style="stroke:#181818;stroke-width:1;"/><text fill="#000000" font-family="sans-serif" font-size="13" lengthAdjust="spacing" textLength="104.5981" x="1330" y="452.7549">evaluate_content</text></g><!--link llm_resp to content_scores--><g class="link" data-entity-1="ent0014" data-entity-2="ent0025" data-link-type="dependency" data-source-line="67" id="lnk45"><path d="M723.35,221.1579 C820.91,273.2279 1203.6166,477.473 1301.2966,529.603" fill="none" id="llm_resp-to-content_scores" style="stroke:#181818;stroke-width:1;"/><polygon fill="#181818" points="1306.59,532.4279,1300.5333,524.6616,1302.1789,530.0738,1296.7667,531.7194,1306.59,532.4279" style="stroke:#181818;stroke-width:1;"/><text fill="#000000" font-family="sans-serif" font-size="13" lengthAdjust="spacing" textLength="92.6511" x="1068.12" y="381.6949">LLM evaluation</text></g><!--link sandbox_out to sandbox_report--><g class="link" data-entity-1="ent0015" data-entity-2="ent0026" data-link-type="dependency" data-source-line="68" id="lnk46"><path d="M904.3,221.0379 C928.96,236.1879 974.77,261.7279 1018,271.7679 C1049.12,278.9879 1564.23,265.8679 1593,279.7679 C1629.83,297.5479 1652.4842,336.5879 1662.9542,357.9979" fill="none" id="sandbox_out-to-sandbox_report" style="stroke:#181818;stroke-width:1;"/><polygon fill="#181818" points="1665.59,363.3879,1665.2296,353.5457,1663.3935,358.8962,1658.0429,357.0601,1665.59,363.3879" style="stroke:#181818;stroke-width:1;"/><text fill="#000000" font-family="sans-serif" font-size="13" lengthAdjust="spacing" textLength="208.3122" x="1019" y="267.6649">run_command, read_file -&gt; format</text></g><!--link content_scores to pr_comment--><g class="link" data-entity-1="ent0025" data-entity-2="ent0028" data-link-type="dependency" data-source-line="71" id="lnk47"><path d="M1388.7,549.4279 C1612.51,561.0579 2394.34,604.1079 2499,642.7979 C2539.67,657.8379 2574.3981,688.1654 2593.1381,706.3854" fill="none" id="content_scores-to-pr_comment" style="stroke:#181818;stroke-width:1;"/><polygon fill="#181818" points="2597.44,710.5679,2593.7755,701.4262,2593.8551,707.0825,2588.1988,707.1621,2597.44,710.5679" style="stroke:#181818;stroke-width:1;"/><text fill="#000000" font-family="sans-serif" font-size="13" lengthAdjust="spacing" textLength="83.8501" x="2468.41" y="630.6949">format report</text></g><!--link sandbox_report to pr_comment--><g class="link" data-entity-1="ent0026" data-entity-2="ent0028" data-link-type="dependency" data-source-line="72" id="lnk48"><path d="M1695.29,389.2679 C1710.36,396.0679 1730.35,403.9779 1749,407.8579 C1853.18,429.5079 2637.66,382.4679 2705,464.8579 C2742.43,510.6479 2724.09,541.9479 2705,597.9279 C2688.54,646.2079 2649.3416,686.3041 2627.0116,706.5841" fill="none" id="sandbox_report-to-pr_comment" style="stroke:#181818;stroke-width:1;"/><polygon fill="#181818" points="2622.57,710.6179,2631.9217,707.5282,2626.2713,707.2564,2626.5432,701.606,2622.57,710.6179" style="stroke:#181818;stroke-width:1;"/><text fill="#000000" font-family="sans-serif" font-size="13" lengthAdjust="spacing" textLength="123.0451" x="2727.72" y="550.7849">append code review</text></g><!--link sandbox_report to inline_comments--><g class="link" data-entity-1="ent0026" data-entity-2="ent0029" data-link-type="dependency" data-source-line="73" id="lnk49"><path d="M1695.28,389.2979 C1710.35,396.1079 1730.34,404.0179 1749,407.8579 C1951.1,449.4279 2471.49,419.4379 2677,437.8579 C2758.89,445.1979 2799.21,409.4979 2860,464.8579 C2933.5,531.7879 2928.3371,663.1002 2924.7671,704.3702" fill="none" id="sandbox_report-to-inline_comments" style="stroke:#181818;stroke-width:1;"/><polygon fill="#181818" points="2924.25,710.3479,2929.0108,701.7261,2924.6809,705.3665,2921.0405,701.0367,2924.25,710.3479" style="stroke:#181818;stroke-width:1;"/><text fill="#000000" font-family="sans-serif" font-size="13" lengthAdjust="spacing" textLength="72.761" x="2922.04" y="550.7849">post_review</text></g><!--link penalty to pr_comment--><g class="link" data-entity-1="ent0024" data-entity-2="ent0028" data-link-type="dependency" data-source-line="74" id="lnk50"><path d="M1532.56,389.2579 C1549.62,396.0479 1572.17,403.9579 1593,407.8579 C1777.69,442.3979 2255.02,395.1679 2438,437.8579 C2466.48,444.4979 2477.49,444.0179 2498,464.8579 C2516.91,484.0679 2584.0419,657.1856 2602.3819,705.0156" fill="none" id="penalty-to-pr_comment" style="stroke:#181818;stroke-width:1;"/><polygon fill="#181818" points="2604.53,710.6179,2605.0426,700.7824,2602.7399,705.9494,2597.5729,703.6466,2604.53,710.6179" style="stroke:#181818;stroke-width:1;"/><text fill="#000000" font-family="sans-serif" font-size="13" lengthAdjust="spacing" textLength="132.0541" x="2561.02" y="550.7849">final score calculation</text></g><!--link pr_comment to gh--><g class="link" data-entity-1="ent0028" data-entity-2="ent0002" data-link-type="dependency" data-source-line="75" id="lnk51"><path d="M2621.71,736.1879 C2640.95,753.7779 2679.06,787.2679 2715,810.8679 C2756.175,837.9129 2805.2675,863.4179 2844.51,882.3467 C2864.1312,891.811 2881.29,899.6314 2893.7653,905.1781 C2896.8841,906.5648 2899.7103,907.8093 2902.209,908.902 C2903.4583,909.4483 2904.6258,909.9566 2905.7071,910.4258 C2905.9774,910.543 2906.2424,910.6579 2906.5018,910.7702 C2906.6316,910.8264 2901.2532,908.4997 2901.3802,908.5547" fill="none" id="pr_comment-to-gh" style="stroke:#181818;stroke-width:1;"/><polygon fill="#181818" points="2906.887,910.9369,2900.2149,903.6924,2902.298,908.9517,2897.0386,911.0348,2906.887,910.9369" style="stroke:#181818;stroke-width:1;"/><text fill="#000000" font-family="sans-serif" font-size="13" lengthAdjust="spacing" textLength="91.0261" x="2716" y="806.7649">post_comment</text></g><!--link inline_comments to diff_hunks--><g class="link" data-entity-1="ent0029" data-entity-2="ent0006" data-link-type="dependency" data-source-line="76" id="lnk52"><path d="M2942.1,736.1579 C2959.27,747.9379 2983.48,767.7379 2995,791.8679 C3012.73,829.0179 3009.6193,873.8487 3006.6393,896.5987" fill="none" id="inline_comments-to-diff_hunks" style="stroke:#181818;stroke-width:1;"/><polygon fill="#181818" points="3005.86,902.5479,3010.995,894.1437,3006.5094,897.5903,3003.0628,893.1046,3005.86,902.5479" style="stroke:#181818;stroke-width:1;"/><text fill="#000000" font-family="sans-serif" font-size="13" lengthAdjust="spacing" textLength="101.9331" x="3002.92" y="806.7649">filter by diff lines</text></g><!--link inline_comments to gh--><g class="link" data-entity-1="ent0029" data-entity-2="ent0002" data-link-type="dependency" data-source-line="77" id="lnk53"><path d="M2917.72,735.9879 C2912.03,749.2079 2903.36,771.5879 2900,791.8679 C2895.59,818.5129 2899.155,848.6129 2903.9125,872.3129 C2904.5072,875.2754 2905.1205,878.1379 2905.7392,880.8812 C2906.0486,882.2528 2906.3593,883.5946 2906.6697,884.9042 C2906.7473,885.2316 2905.4257,879.7224 2905.5033,880.0457" fill="none" id="inline_comments-to-gh" style="stroke:#181818;stroke-width:1;"/><polygon fill="#181818" points="2906.9024,885.8803,2908.6935,876.1957,2905.7365,881.0182,2900.914,878.0612,2906.9024,885.8803" style="stroke:#181818;stroke-width:1;"/><text fill="#000000" font-family="sans-serif" font-size="13" lengthAdjust="spacing" textLength="89.7001" x="2901" y="806.7649">post PR review</text></g><!--link content_scores to results_row--><g class="link" data-entity-1="ent0025" data-entity-2="ent0030" data-link-type="dependency" data-source-line="78" id="lnk54"><path d="M1388.68,557.1179 C1484.4,574.2179 1678.27,608.4179 1843,634.7979 C2043.92,666.9779 2278.069,700.4988 2378.819,714.7288" fill="none" id="content_scores-to-results_row" style="stroke:#181818;stroke-width:1;"/><polygon fill="#181818" points="2384.76,715.5679,2376.4079,710.3486,2379.8091,714.8687,2375.289,718.2699,2384.76,715.5679" style="stroke:#181818;stroke-width:1;"/></g><!--link penalty to results_row--><g class="link" data-entity-1="ent0024" data-entity-2="ent0030" data-link-type="dependency" data-source-line="79" id="lnk55"><path d="M1532.57,389.2079 C1549.63,395.9879 1572.19,403.8979 1593,407.8579 C1689.15,426.1579 2405.01,393.4979 2472,464.8579 C2523.9,520.1379 2507.69,561.8579 2487,634.7979 C2478.52,664.6879 2460.4371,689.7587 2447.2771,705.7187" fill="none" id="penalty-to-results_row" style="stroke:#181818;stroke-width:1;"/><polygon fill="#181818" points="2443.46,710.3479,2452.2718,705.9488,2446.6409,706.4902,2446.0995,700.8593,2443.46,710.3479" style="stroke:#181818;stroke-width:1;"/></g><!--link results_row to results_sheet--><g class="link" data-entity-1="ent0030" data-entity-2="ent0011" data-link-type="dependency" data-source-line="80" id="lnk56"><path d="M2384.47,719.5779 C2221.9,709.8479 1682,673.5579 1242,597.9279 C886.52,536.8179 775.42,569.5679 453,407.8579 C351.73,357.0579 259.793,260.3984 228.583,225.7084" fill="none" id="results_row-to-results_sheet" style="stroke:#181818;stroke-width:1;"/><polygon fill="#181818" points="224.57,221.2479,227.6159,230.614,227.9142,224.965,233.5632,225.2633,224.57,221.2479" style="stroke:#181818;stroke-width:1;"/><text fill="#000000" font-family="sans-serif" font-size="13" lengthAdjust="spacing" textLength="100.9711" x="557.87" y="452.7549">write_result_row</text></g><!--link labels to gh--><g class="link" data-entity-1="ent0031" data-entity-2="ent0002" data-link-type="dependency" data-source-line="81" id="lnk57"><path d="M2776.18,736.2679 C2787.82,753.1279 2809.97,784.7679 2830,810.8679 C2847.555,833.7479 2868.0475,858.7554 2884.5125,878.4604 C2892.745,888.3129 2899.9706,896.8398 2905.3188,903.1123 C2905.653,903.5043 2905.9799,903.8875 2906.2993,904.2617 C2906.459,904.4488 2902.7205,900.0709 2902.8764,900.2535" fill="none" id="labels-to-gh" style="stroke:#181818;stroke-width:1;"/><polygon fill="#181818" points="2906.7727,904.8162,2903.97,895.3746,2903.5257,901.0139,2897.8864,900.5697,2906.7727,904.8162" style="stroke:#181818;stroke-width:1;"/><text fill="#000000" font-family="sans-serif" font-size="13" lengthAdjust="spacing" textLength="58.383" x="2831" y="806.7649">add_label</text></g><!--link proc to traces--><g class="link" data-entity-1="ent0020" data-entity-2="ent0033" data-link-type="dependency" data-source-line="84" id="lnk58"><path d="M2123.0937,388.7522 C2123.1954,388.8962 2123.2979,389.0413 2123.4012,389.1876 C2123.6078,389.4803 2123.8177,389.7775 2124.0309,390.0794 C2125.7358,392.4938 2127.6461,395.199 2129.7298,398.1498 C2138.0647,409.9529 2149.1744,425.6854 2161.0188,442.4579 C2184.7075,476.0029 2207.8732,508.8073 2221.1182,527.5573" fill="none" id="proc-to-traces" style="stroke:#181818;stroke-width:1;"/><polygon fill="#181818" points="2224.58,532.4579,2222.6544,522.7991,2221.6952,528.3741,2216.1202,527.4149,2224.58,532.4579" style="stroke:#181818;stroke-width:1;"/><text fill="#000000" font-family="sans-serif" font-size="13" lengthAdjust="spacing" textLength="127.9851" x="2171.46" y="452.7549">LLM calls via callback</text></g><!--link proc to logs--><g class="link" data-entity-1="ent0020" data-entity-2="ent0034" data-link-type="dependency" data-source-line="85" id="lnk59"><path d="M2123.1962,378.1777 C2123.3241,378.1929 2123.4533,378.2083 2123.5838,378.224 C2123.8449,378.2553 2124.1114,378.2874 2124.3833,378.3205 C2125.4709,378.4528 2126.6442,378.5996 2127.8985,378.7616 C2130.4071,379.0858 2133.2397,379.4711 2136.3586,379.9246 C2148.8341,381.7389 2165.8894,384.6448 2185.1063,389.0917 C2223.54,397.9854 2270.62,413.0429 2307,437.8579 C2344.7,463.5679 2371.2768,505.415 2383.6768,527.345" fill="none" id="proc-to-logs" style="stroke:#181818;stroke-width:1;"/><polygon fill="#181818" points="2386.63,532.5679,2385.6821,522.7648,2384.169,528.2155,2378.7183,526.7024,2386.63,532.5679" style="stroke:#181818;stroke-width:1;"/><text fill="#000000" font-family="sans-serif" font-size="13" lengthAdjust="spacing" textLength="112.7881" x="2330.93" y="452.7549">tool results, errors</text></g><!--link pr_ctx to GMN60--><g class="link" data-entity-1="ent0018" data-entity-2="ent0061" data-link-type="association" data-source-line="88" id="lnk62"><path d="M1839.56,221.1979 C1851.53,229.6079 1868.87,240.1579 1886,244.7679 C1929.67,256.5079 3473.01,233.6679 3514,252.7679 C3554.47,271.6179 3584.98,314.7679 3602.17,344.4779" fill="none" id="pr_ctx-GMN60" style="stroke:#181818;stroke-width:1;stroke-dasharray:7,7;"/></g><!--link sandbox_report to GMN63--><g class="link" data-entity-1="ent0026" data-entity-2="ent0064" data-link-type="association" data-source-line="94" id="lnk65"><path d="M1694.92,389.2079 C1710.03,396.0779 1730.18,404.0879 1749,407.8579 C1897.86,437.6679 2974.15,381.2079 3115,437.8579 C3149.25,451.6279 3179.63,480.5079 3200.71,504.7179" fill="none" id="sandbox_report-GMN63" style="stroke:#181818;stroke-width:1;stroke-dasharray:7,7;"/></g><?plantuml-src TLPDR-Cs4BthLmnogOCcEHH53paiiDriDYwoQ90iKA158L3YsEAQ4bsIYkCM-zyxGr8M9NbziJXyyprl9A-yHhWJNi2zDWUuKs9hHLiKFy2BwMsDhh1OUz5j2NRnIVc7lhe0uM3Rm7y5qAyMLiB57rWrnknWBuxQ21aWXwPCnmpuz0mRfT71IghDvZ80zxOCiWnsJsUeJUUnyx2gXCDVVevWHfRfPcgN3KBJTpiNW7mimx7uLaooC8R_Nnf47w5RDqdcsJYF5Xm3mhqDWZ88SbnVMLMx71Wb2-GT2gbLXpbM3hAbNNIzzXExKPAGqtG-lb5idT01Y6z-aigZgC3jiQR6R15M3ry-FyOoih1iVAipy9ytxzVm-FYPtUrDvp1MH-ksP4c6_FZJh-149olp1gRt-pw6cKGbYJX8cg4Z5QxDetsovYkTuBTURZ5s_oj576ndi7Mt9PVHluhFAQ-yvHzu3DxyC4IrVvj1NdmlQKwUiJOs3gMB4age3jXl2zSK8Osz8w_9hgaNhjzRhpQ2qgWRh7UfFG4kqWrNRAOKPfhZXHKLIddrByfiflbcfd5dxeW4xLwZLwQBKsFa6TDFI0FWZmJ6pKRLYZACmKVv3FqXySfHLLAF4w7AA9fNCRRr6VV6JXjjW-WxXVnz78mu8sSwoEcrWUEji3jf3jrf9QIRcSgwOywGcrU5Xq5xc1E-6lJcIGoaikOmeHITPqZY3Eeq-k7nU_bL3kshg9HM_XZJh9PJ-aZeJU-eyrRKgThnSGPqtlQrrsOB-7hAYOw3-q2eiAatjAaTN4CYIJ4kMhY-VfUO0BV4UKj-WxKYNs41bH61e9QMKHanAuUTH7jPJ9OPtDoycqq9gTLMaOQYa8mbHqBtWYUrcEsse9ncaRI6Mv32uoAhaN_5y6880UVCOjVCl78GkY9_BmJyYLH3UYo07s7WNf7gnDZ4gg5c9PrNUtjJ6Ncyp75Z3j7za0c3QtBYKPR2NnQdxPeQOhZ66_HrKuPjp2vHgrUqegByhe2ONem1izAYrgcyuyjlsClduRp7iuvagpcsVy9WBb7V1UgG_2gh5nVIs5RuHPyYlOkPus404wrlapQaJJ5pkq2BFPLOKZPouFWvbHdJkMqqkcLI69gq34NHHTnwn3bTzphM9WEn3dtQ98F32fhx2oDp-hm8bZL_CLJ7-14IHl-iriasqEvByPwfOBwSydHoUVOykOkCkuK3SxECqg0GbzaOXf2o339kxMIP5M5Y6HWtLHedgXdflnBT-QaIzMu4yg8Yc3T63v5S0Lfhh2kApdY4odXlMZ2RyLMzRjlUCmEeWAYbkoNPIAChQ7WCNIEkIAuwvybhw5YfPC5ZmdONrXVlffUmM7kBChs7s4tLAqsslV0z1UhHSUNYYOEW-Il_wGKNerJEzUXY39EE_lNtF0ghjetd89Rlelim8YXlmNJwc4O4g1ReUF1K1-aJbeIhv_MdXo_WbCJBqSN_?></g></svg>